<mxfile host="app.diagrams.net" modified="2023-03-04T15:29:13.216Z" agent="5.0 (Windows NT 10.0; Win64; x64) AppleWebKit/537.36 (KHTML, like Gecko) Chrome/109.0.0.0 Safari/537.36 OPR/95.0.0.0" etag="wufO7ABTQ0PVCONZlwEC" version="21.0.2" type="github">
  <diagram name="Página-1" id="yuYKPmyiRWDGH2rdynPT">
    <mxGraphModel dx="1119" dy="1774" grid="1" gridSize="10" guides="1" tooltips="1" connect="1" arrows="1" fold="1" page="1" pageScale="1" pageWidth="827" pageHeight="1169" background="none" math="0" shadow="0">
      <root>
        <mxCell id="0" />
        <mxCell id="1" parent="0" />
        <mxCell id="6Gyz_XSwTORCu45sHOnr-1" value="&lt;span&gt;&lt;font style=&quot;font-size: 15px;&quot; face=&quot;Russo One&quot;&gt;INÍCIO&lt;/font&gt;&lt;/span&gt;" style="ellipse;whiteSpace=wrap;html=1;aspect=fixed;fontStyle=0;strokeWidth=2;" vertex="1" parent="1">
          <mxGeometry x="360" y="-1160" width="80" height="80" as="geometry" />
        </mxCell>
        <mxCell id="6Gyz_XSwTORCu45sHOnr-2" value="&lt;span&gt;&lt;font style=&quot;font-size: 15px;&quot; face=&quot;Russo One&quot;&gt;FIM&lt;/font&gt;&lt;/span&gt;" style="ellipse;whiteSpace=wrap;html=1;aspect=fixed;fontStyle=0;strokeWidth=2;" vertex="1" parent="1">
          <mxGeometry x="360" y="-90" width="80" height="80" as="geometry" />
        </mxCell>
      </root>
    </mxGraphModel>
  </diagram>
</mxfile>
